<svg width="24" height="18" viewBox="0 0 24 18" fill="none" xmlns="http://www.w3.org/2000/svg">
<g clip-path="url(#clip0_150_8543)">
<path d="M23.5 14.3107C23.5 16.3023 21.8973 17.924 19.9291 17.924H0.5V3.61325C0.5 1.62169 2.10269 0 4.0709 0H23.5V14.3107Z" fill="white"/>
<path d="M17.1736 10.6405H18.6498C18.692 10.6405 18.7904 10.6263 18.8325 10.6263C19.1137 10.5694 19.3527 10.3134 19.3527 9.95772C19.3527 9.61631 19.1137 9.36025 18.8325 9.28913C18.7904 9.2749 18.706 9.2749 18.6498 9.2749H17.1736V10.6405Z" fill="url(#paint0_linear_150_8543)"/>
<path d="M18.4811 1.20898C17.0752 1.20898 15.9224 2.36124 15.9224 3.798V6.4866H19.5355C19.6198 6.4866 19.7183 6.4866 19.7886 6.50083C20.604 6.5435 21.2085 6.97026 21.2085 7.70998C21.2085 8.29322 20.8008 8.79111 20.0416 8.89069V8.91914C20.8711 8.97604 21.5037 9.44548 21.5037 10.171C21.5037 10.9534 20.8008 11.4655 19.8729 11.4655H15.9084V16.7289H19.662C21.0679 16.7289 22.2207 15.5766 22.2207 14.1399V1.20898H18.4811Z" fill="url(#paint1_linear_150_8543)"/>
<path d="M19.1699 7.8808C19.1699 7.53939 18.9309 7.31178 18.6498 7.26911C18.6217 7.26911 18.5514 7.25488 18.5092 7.25488H17.1736V8.50672H18.5092C18.5514 8.50672 18.6357 8.50672 18.6498 8.49249C18.9309 8.44981 19.1699 8.22221 19.1699 7.8808Z" fill="url(#paint2_linear_150_8543)"/>
<path d="M4.33815 1.20898C2.93228 1.20898 1.77947 2.36124 1.77947 3.798V10.1852C2.49646 10.5408 3.24157 10.7684 3.98668 10.7684C4.87238 10.7684 5.35038 10.2279 5.35038 9.48816V6.47238H7.54353V9.47393C7.54353 10.6404 6.82654 11.5935 4.39438 11.5935C2.91822 11.5935 1.76541 11.2663 1.76541 11.2663V16.7147H5.51908C6.92495 16.7147 8.07776 15.5624 8.07776 14.1256V1.20898H4.33815Z" fill="url(#paint3_linear_150_8543)"/>
<path d="M11.4095 1.20898C10.0036 1.20898 8.85083 2.36124 8.85083 3.798V7.18365C9.49753 6.62886 10.6222 6.27322 12.4358 6.35857C13.4058 6.40125 14.4462 6.67153 14.4462 6.67153V7.76689C13.926 7.4966 13.3074 7.25477 12.5061 7.19787C11.1283 7.09829 10.2989 7.78111 10.2989 8.97604C10.2989 10.1852 11.1283 10.868 12.5061 10.7542C13.3074 10.6973 13.926 10.4413 14.4462 10.1852V11.2806C14.4462 11.2806 13.4199 11.5508 12.4358 11.5935C10.6222 11.6789 9.49753 11.3232 8.85083 10.7684V16.7431H12.6045C14.0104 16.7431 15.1632 15.5908 15.1632 14.1541V1.20898H11.4095Z" fill="url(#paint4_linear_150_8543)"/>
</g>
<defs>
<linearGradient id="paint0_linear_150_8543" x1="15.92" y1="9.95942" x2="22.2376" y2="9.95942" gradientUnits="userSpaceOnUse">
<stop stop-color="#007940"/>
<stop offset="0.2285" stop-color="#00873F"/>
<stop offset="0.7433" stop-color="#40A737"/>
<stop offset="1" stop-color="#5CB531"/>
</linearGradient>
<linearGradient id="paint1_linear_150_8543" x1="15.9199" y1="8.96272" x2="22.238" y2="8.96272" gradientUnits="userSpaceOnUse">
<stop stop-color="#007940"/>
<stop offset="0.2285" stop-color="#00873F"/>
<stop offset="0.7433" stop-color="#40A737"/>
<stop offset="1" stop-color="#5CB531"/>
</linearGradient>
<linearGradient id="paint2_linear_150_8543" x1="15.9199" y1="7.87902" x2="22.2377" y2="7.87902" gradientUnits="userSpaceOnUse">
<stop stop-color="#007940"/>
<stop offset="0.2285" stop-color="#00873F"/>
<stop offset="0.7433" stop-color="#40A737"/>
<stop offset="1" stop-color="#5CB531"/>
</linearGradient>
<linearGradient id="paint3_linear_150_8543" x1="1.77649" y1="8.96272" x2="8.1919" y2="8.96272" gradientUnits="userSpaceOnUse">
<stop stop-color="#1F286F"/>
<stop offset="0.4751" stop-color="#004E94"/>
<stop offset="0.8261" stop-color="#0066B1"/>
<stop offset="1" stop-color="#006FBC"/>
</linearGradient>
<linearGradient id="paint4_linear_150_8543" x1="8.81448" y1="8.96272" x2="15.0453" y2="8.96272" gradientUnits="userSpaceOnUse">
<stop stop-color="#6C2C2F"/>
<stop offset="0.1735" stop-color="#882730"/>
<stop offset="0.5731" stop-color="#BE1833"/>
<stop offset="0.8585" stop-color="#DC0436"/>
<stop offset="1" stop-color="#E60039"/>
</linearGradient>
<clipPath id="clip0_150_8543">
<rect width="23" height="18" fill="white" transform="translate(0.5)"/>
</clipPath>
</defs>
</svg>