<svg width="56" height="10" viewBox="0 0 56 10" fill="none" xmlns="http://www.w3.org/2000/svg">
<g clip-path="url(#clip0_150_8536)">
<path d="M24.2369 6.68193V4.59102C24.2369 3.80314 23.748 3.27283 22.9628 3.27283C22.5035 3.24253 22.0739 3.4698 21.8221 3.86374C21.5998 3.48496 21.185 3.25768 20.7554 3.27283C20.3702 3.25768 20.0146 3.4395 19.8072 3.77283V3.36374H19.0961V6.69708H19.8072V4.83344C19.8072 4.25768 20.1184 3.95465 20.6072 3.95465C21.0961 3.95465 21.3184 4.27283 21.3184 4.83344V6.68193H22.0295V4.83344C22.0295 4.25768 22.3554 3.95465 22.8295 3.95465C23.3035 3.95465 23.5406 4.27283 23.5406 4.83344V6.68193H24.2369ZM34.7998 3.36374H33.6443V2.34859H32.9332V3.36374H32.2665V4.03041H32.9332V5.54556C32.9332 6.31829 33.2295 6.77284 34.0591 6.77284C34.3702 6.77284 34.6813 6.68193 34.948 6.51526L34.7406 5.89405C34.548 6.01526 34.3406 6.07587 34.1184 6.07587C33.7628 6.07587 33.6443 5.84859 33.6443 5.51526V4.01526H34.7998V3.36374ZM40.8295 3.27283C40.4739 3.25768 40.148 3.45465 39.9702 3.75768V3.34859H39.2739V6.66677H39.985V4.81829C39.985 4.25768 40.2221 3.9698 40.6813 3.9698C40.8295 3.9698 40.9776 4.00011 41.1258 4.04556L41.348 3.36374C41.1702 3.30314 41.0072 3.27283 40.8295 3.27283ZM31.7035 3.62132C31.3035 3.3789 30.8443 3.25768 30.3702 3.27283C29.5406 3.27283 29.0072 3.68193 29.0072 4.33344C29.0072 4.8789 29.4072 5.21223 30.1332 5.31829L30.4591 5.36374C30.8443 5.42435 31.0369 5.53041 31.0369 5.71223C31.0369 5.96981 30.785 6.12132 30.2961 6.12132C29.9109 6.13647 29.5258 6.01526 29.2147 5.77284L28.8887 6.33344C29.3035 6.62132 29.7924 6.77284 30.2961 6.77284C31.2295 6.77284 31.7776 6.31829 31.7776 5.68193C31.7776 5.09102 31.348 4.78799 30.6369 4.68193L30.3109 4.63647C29.9998 4.59102 29.7628 4.53041 29.7628 4.30314C29.7628 4.06071 29.9998 3.9092 30.385 3.9092C30.7406 3.9092 31.0961 4.01526 31.3924 4.19708L31.7035 3.62132ZM50.6517 3.27283C50.2961 3.25768 49.9702 3.45465 49.7924 3.75768V3.34859H49.0961V6.66677H49.8072V4.81829C49.8072 4.25768 50.0443 3.9698 50.5035 3.9698C50.6517 3.9698 50.7998 4.00011 50.948 4.04556L51.1702 3.36374C50.9924 3.30314 50.8295 3.27283 50.6517 3.27283ZM41.5406 5.01526C41.5406 6.03041 42.2221 6.75768 43.2739 6.75768C43.7035 6.77284 44.1184 6.63647 44.4443 6.36374L44.1035 5.77284C43.8517 5.9698 43.5554 6.06071 43.2591 6.07587C42.6961 6.07587 42.2813 5.65162 42.2813 5.01526C42.2813 4.3789 42.6961 3.95465 43.2591 3.95465C43.5702 3.95465 43.8665 4.06071 44.1035 4.25768L44.4443 3.66677C44.1184 3.39405 43.7035 3.24253 43.2739 3.27283C42.2369 3.27283 41.5406 4.01526 41.5406 5.01526ZM48.1628 5.01526V3.34859H47.4517V3.75768C47.1998 3.4395 46.8295 3.25768 46.4295 3.27283C45.5258 3.27283 44.7998 4.00011 44.7998 5.01526C44.7998 6.03041 45.5109 6.75768 46.4295 6.75768C46.8295 6.77284 47.2147 6.59102 47.4517 6.27284V6.68193H48.1628V5.01526ZM45.5406 5.01526C45.5406 4.42435 45.9109 3.95465 46.5332 3.95465C47.111 3.95465 47.511 4.4092 47.511 5.01526C47.511 5.62132 47.111 6.07587 46.5332 6.07587C45.9109 6.07587 45.5406 5.60617 45.5406 5.01526ZM37.0072 3.27283C36.0591 3.27283 35.3924 3.98496 35.3924 5.01526C35.3924 6.07587 36.0887 6.75768 37.0517 6.75768C37.5406 6.77284 38.0147 6.60617 38.385 6.28799L38.0443 5.75768C37.7776 5.98496 37.4369 6.10617 37.0961 6.10617C36.6369 6.10617 36.2221 5.89405 36.1184 5.28799H38.5332C38.5332 5.19708 38.548 5.10617 38.548 5.01526C38.5332 3.98496 37.9109 3.27283 37.0072 3.27283ZM36.9924 3.92435C37.4517 3.92435 37.7332 4.21223 37.8221 4.72738H36.1332C36.1924 4.24253 36.4887 3.92435 36.9924 3.92435ZM54.7258 5.01526V2.01526H54.0147V3.75768C53.7628 3.4395 53.3924 3.25768 52.9924 3.27283C52.0887 3.27283 51.3628 4.00011 51.3628 5.01526C51.3628 6.03041 52.0739 6.75768 52.9924 6.75768C53.3924 6.77284 53.7776 6.59102 54.0147 6.27284V6.68193H54.7258V5.01526ZM55.5554 6.3789C55.585 6.3789 55.6147 6.3789 55.6295 6.39405C55.6591 6.4092 55.6739 6.42435 55.6887 6.4395C55.7035 6.45465 55.7184 6.48496 55.7332 6.50011C55.748 6.54556 55.748 6.60617 55.7332 6.66677C55.7184 6.69708 55.7035 6.71223 55.6887 6.72738C55.6739 6.74253 55.6443 6.75768 55.6295 6.77284C55.5998 6.78799 55.5702 6.78799 55.5554 6.78799C55.4665 6.78799 55.3924 6.74253 55.3628 6.65162C55.348 6.60617 55.348 6.54556 55.3628 6.48496C55.3776 6.4395 55.4221 6.39405 55.4813 6.3789C55.4961 6.3789 55.5258 6.3789 55.5554 6.3789ZM55.5554 6.74253C55.5702 6.74253 55.5998 6.74253 55.6147 6.72738C55.6295 6.71223 55.6443 6.71223 55.6591 6.69708C55.7184 6.63647 55.7184 6.53041 55.6591 6.46981C55.6443 6.45465 55.6295 6.4395 55.6147 6.4395C55.5998 6.42435 55.5702 6.42435 55.5554 6.42435C55.5406 6.42435 55.511 6.42435 55.4961 6.4395C55.4072 6.4698 55.3776 6.57587 55.4072 6.65162C55.4221 6.66677 55.4221 6.68193 55.4369 6.69708C55.4517 6.71223 55.4665 6.72738 55.4813 6.72738C55.5109 6.74253 55.5258 6.74253 55.5554 6.74253ZM55.5702 6.48496C55.585 6.48496 55.6147 6.48496 55.6295 6.50011C55.6443 6.51526 55.6443 6.53041 55.6443 6.54556C55.6443 6.56071 55.6443 6.57587 55.6295 6.59102C55.6147 6.60617 55.5998 6.60617 55.585 6.60617L55.6443 6.68193H55.5998L55.5406 6.60617H55.5258V6.68193H55.4813V6.48496H55.5702ZM55.511 6.51526V6.56071H55.5554C55.5702 6.56071 55.5702 6.56071 55.585 6.56071L55.5998 6.54556C55.5998 6.53041 55.5998 6.53041 55.585 6.53041C55.5702 6.53041 55.5702 6.53041 55.5554 6.53041L55.511 6.51526ZM52.1035 5.01526C52.1035 4.42435 52.4739 3.95465 53.0961 3.95465C53.6739 3.95465 54.0739 4.4092 54.0739 5.01526C54.0739 5.62132 53.6739 6.07587 53.0961 6.07587C52.4739 6.07587 52.1035 5.60617 52.1035 5.01526ZM28.2221 5.01526V3.34859H27.5109V3.75768C27.2591 3.4395 26.8887 3.25768 26.4887 3.27283C25.585 3.27283 24.8591 4.00011 24.8591 5.01526C24.8591 6.03041 25.5702 6.75768 26.4887 6.75768C26.8887 6.77284 27.2739 6.59102 27.5109 6.27284V6.68193H28.2221V5.01526ZM25.585 5.01526C25.585 4.42435 25.9554 3.95465 26.5776 3.95465C27.1554 3.95465 27.5554 4.4092 27.5554 5.01526C27.5554 5.62132 27.1554 6.07587 26.5776 6.07587C25.9554 6.07587 25.585 5.60617 25.585 5.01526Z" fill="#231F20"/>
<path d="M10.0592 1.06067H5.77771V8.92431H10.0592V1.06067Z" fill="#FF5F00"/>
<path d="M6.04459 5.00042C6.04459 3.47012 6.72607 2.01557 7.91126 1.07618C5.79274 -0.635944 2.71126 -0.257157 1.052 1.90951C-0.607262 4.07618 -0.251707 7.22769 1.88163 8.92466C3.6594 10.3489 6.14829 10.3489 7.92607 8.92466C6.72607 7.98527 6.04459 6.53072 6.04459 5.00042Z" fill="#EB001B"/>
<path d="M15.8221 5.00019C15.8221 7.75777 13.6295 10.0002 10.9332 10.0002C9.83688 10.0002 8.77021 9.6214 7.91095 8.92443C10.0295 7.21231 10.3998 4.07595 8.74058 1.90928C8.50354 1.5911 8.22206 1.31837 7.91095 1.0608C10.0295 -0.651325 13.1109 -0.272538 14.7702 1.89413C15.4517 2.78807 15.8221 3.87898 15.8221 5.00019Z" fill="#F79E1B"/>
<path d="M15.348 8.09089V7.92422H15.4073V7.89392H15.2592V7.92422H15.3184V8.09089H15.348ZM15.6592 8.09089V7.89392H15.6147L15.5555 8.03029L15.4962 7.89392H15.4517V8.09089H15.4814V7.93938L15.5406 8.06059H15.5703L15.6295 7.93938V8.09089H15.6592Z" fill="#F79E1B"/>
</g>
<defs>
<clipPath id="clip0_150_8536">
<rect width="56" height="10" fill="white"/>
</clipPath>
</defs>
</svg>