<svg width="54" height="16" viewBox="0 0 54 16" fill="none" xmlns="http://www.w3.org/2000/svg">
<g clip-path="url(#clip0_150_8529)">
<path d="M19.1856 15.8057L21.8759 0.266968H26.1561L23.4657 15.8057H19.1856Z" fill="#004686"/>
<path d="M39.0453 0.655783C38.1893 0.340153 36.8685 0.000244141 35.2054 0.000244141C30.9742 0.000244141 27.9659 2.11254 27.9415 5.12316C27.917 7.35684 30.0693 8.59508 31.708 9.34774C33.3711 10.1004 33.9336 10.586 33.9336 11.2658C33.9336 12.3098 32.5884 12.7711 31.3655 12.7711C29.6535 12.7711 28.7241 12.5283 27.33 11.9456L26.7675 11.7028L26.156 15.1748C27.1588 15.6118 29.0176 15.976 30.9498 16.0002C35.4744 16.0002 38.3849 13.9122 38.4338 10.7074C38.4583 8.93499 37.3088 7.59964 34.8385 6.48279C33.3466 5.75442 32.4172 5.29311 32.4172 4.56474C32.4172 3.9092 33.1999 3.22938 34.8875 3.22938C36.2816 3.2051 37.3088 3.52073 38.0914 3.81208L38.4828 3.98203L39.0453 0.655783Z" fill="#004686"/>
<path d="M50.0513 0.291016H46.7251C45.6979 0.291016 44.9397 0.558087 44.475 1.57781L38.0915 15.8054H42.5917C42.5917 15.8054 43.3255 13.8874 43.4967 13.4746C43.9858 13.4746 48.3638 13.4746 48.9997 13.4746C49.122 14.0088 49.5133 15.8054 49.5133 15.8054H53.4999L50.0513 0.291016ZM44.7685 10.2941C45.1353 9.39572 46.4805 5.94807 46.4805 5.94807C46.4561 5.99663 46.8229 5.04974 47.043 4.46704L47.3365 5.8024C47.3365 5.8024 48.1681 9.51712 48.3393 10.2941H44.7685Z" fill="#004686"/>
<path d="M15.5905 0.291016L11.3838 10.8767L10.9436 8.7159C10.1365 6.23942 7.71513 3.54443 4.97586 2.20907L8.81573 15.7811H13.3649L20.1397 0.291016H15.5905Z" fill="#004686"/>
<path d="M7.47047 0.266968H0.548916L0.5 0.582598C5.88071 1.8694 9.45155 4.97714 10.919 8.71614L9.42709 1.57805C9.15805 0.606877 8.39986 0.315526 7.47047 0.266968Z" fill="#EF9B11"/>
</g>
<defs>
<clipPath id="clip0_150_8529">
<rect width="53" height="16" fill="white" transform="translate(0.5)"/>
</clipPath>
</defs>
</svg>