<svg width="124" height="124" viewBox="0 0 124 124" fill="none" xmlns="http://www.w3.org/2000/svg">
<rect width="124" height="124" rx="14" fill="#FF5108" fill-opacity="0.05"/>
<path fill-rule="evenodd" clip-rule="evenodd" d="M83.2142 75.56L83.8542 78.6C84.4607 81.2282 83.8619 83.99 82.2213 86.131C80.5807 88.2721 78.0698 89.5686 75.3742 89.6667H50.6276C47.932 89.5686 45.4211 88.2721 43.7805 86.131C42.1399 83.99 41.5411 81.2282 42.1476 78.6L42.7876 75.56C43.5237 71.4447 47.0612 68.4205 51.2409 68.3333H74.7609C78.9406 68.4205 82.4781 71.4447 83.2142 75.56ZM75.3742 85.64C76.7283 85.6243 78.0027 84.9969 78.8409 83.9333V83.96C79.8694 82.6698 80.2701 80.9887 79.9342 79.3733L79.2942 76.3333C78.9391 74.0805 77.0399 72.3935 74.7609 72.3067H51.2409C48.9619 72.3935 47.0627 74.0805 46.7076 76.3333L46.0676 79.3733C45.74 80.9802 46.1403 82.6497 47.1609 83.9333C47.9991 84.9969 49.2735 85.6243 50.6276 85.64H75.3742Z" fill="#FF5108"/>
<path fill-rule="evenodd" clip-rule="evenodd" d="M64.3334 63H61.6667C55.7757 63 51 58.2243 51 52.3333V45.2933C50.9929 42.9148 51.9346 40.6316 53.6165 38.9498C55.2984 37.2679 57.5815 36.3262 59.96 36.3333H66.04C68.4186 36.3262 70.7017 37.2679 72.3836 38.9498C74.0654 40.6316 75.0072 42.9148 75 45.2933V52.3333C75 58.2243 70.2244 63 64.3334 63ZM59.9601 40.3333C57.2207 40.3333 55.0001 42.554 55.0001 45.2933V52.3333C55.0001 56.0152 57.9848 59 61.6667 59H64.3334C68.0153 59 71.0001 56.0152 71.0001 52.3333V45.2933C71.0001 43.9778 70.4775 42.7162 69.5473 41.7861C68.6171 40.8559 67.3555 40.3333 66.0401 40.3333H59.9601Z" fill="#FF5108"/>
</svg>
