<svg width="25" height="24" viewBox="0 0 25 24" fill="none" xmlns="http://www.w3.org/2000/svg">
<path d="M13.9626 13.3774C13.9626 12.4952 13.2194 11.7801 12.3026 11.7801C11.3858 11.7801 10.6426 12.4952 10.6426 13.3774C10.6412 13.7514 10.7796 14.1134 11.0326 14.3974C11.2875 14.653 11.3758 15.0226 11.2626 15.3597L11.0526 15.9563C10.9714 16.2246 11.0251 16.514 11.1977 16.7387C11.3704 16.9633 11.6422 17.0975 11.9326 17.1014H12.6726C12.9726 17.1013 13.2541 16.962 13.4287 16.7272C13.6032 16.4924 13.6494 16.191 13.5526 15.9178L13.3026 15.3212C13.1894 14.9842 13.2777 14.6145 13.5326 14.3589C13.7912 14.0905 13.9435 13.743 13.9626 13.3774Z" fill="#8D8D91"/>
<path fill-rule="evenodd" clip-rule="evenodd" d="M17.0526 7.81553V4.81327C17.0532 4.02894 16.7221 3.27817 16.1354 2.73364C15.5488 2.18911 14.7572 1.89771 13.9426 1.92647H10.6626C9.84812 1.89771 9.05648 2.18911 8.46985 2.73364C7.88322 3.27817 7.5521 4.02894 7.55265 4.81327V7.81553C5.48116 8.51735 4.22137 10.5378 4.55265 12.6269L5.50265 18.1791C5.97121 20.3908 8.01752 21.9628 10.3626 21.9127H14.2426C16.6045 21.9697 18.6655 20.3808 19.1226 18.1502L20.0726 12.598C20.386 10.5136 19.1195 8.50814 17.0526 7.81553ZM9.05264 4.81327C9.0905 3.99306 9.81011 3.35653 10.6626 3.38912H13.9426C14.7952 3.35653 15.5148 3.99306 15.5526 4.81327V7.47874H15.1926H9.41264H9.05264V4.81327ZM17.3026 17.8616L18.3026 12.2901C18.4019 11.5693 18.1638 10.8432 17.6526 10.3078C17.031 9.62946 16.1324 9.24632 15.1926 9.25893H9.41265C8.47604 9.24146 7.57796 9.61735 6.95265 10.2885C6.45367 10.8369 6.23381 11.5703 6.35265 12.2901L7.30265 17.8616C7.6127 19.2341 8.90434 20.1927 10.3626 20.1325H14.2426C15.7009 20.1927 16.9926 19.2341 17.3026 17.8616Z" fill="#8D8D91"/>
</svg>
