<svg width="111" height="107" viewBox="0 0 111 107" fill="none" xmlns="http://www.w3.org/2000/svg">
<rect width="111" height="107" fill="#FF5108" fill-opacity="0.2"/>
<path d="M26 46.4583C26 45.5155 26 45.0441 26.2929 44.7512C26.5858 44.4583 27.0572 44.4583 28 44.4583H84C84.9428 44.4583 85.4142 44.4583 85.7071 44.7512C86 45.0441 86 45.5155 86 46.4583V77.7724C86 79.2818 86 80.0365 85.5724 80.5805C85.1447 81.1245 84.4114 81.3028 82.9447 81.6593L65.4472 85.9121C60.7462 87.0547 58.3957 87.626 56 87.626C53.6043 87.626 51.2538 87.0547 46.5528 85.9121L29.0553 81.6593C27.5886 81.3028 26.8553 81.1245 26.4276 80.5805C26 80.0365 26 79.2818 26 77.7724V46.4583Z" fill="#7E869E" fill-opacity="0.25"/>
<path d="M72.875 44.4583V34.4062C72.875 29.6922 72.875 27.3352 71.4105 25.8707C69.9461 24.4062 67.589 24.4062 62.875 24.4062H49.125C44.411 24.4062 42.0539 24.4062 40.5895 25.8707C39.125 27.3352 39.125 29.6922 39.125 34.4062V44.4583" stroke="#222222"/>
<ellipse cx="56" cy="62.6875" rx="7.5" ry="7.29167" fill="#222222"/>
<path d="M23 24V26.5" stroke="#222222" stroke-linecap="round"/>
</svg>
