<svg width="205" height="48" viewBox="0 0 205 48" fill="none" xmlns="http://www.w3.org/2000/svg">
<g clip-path="url(#clip0_136_349)">
<rect x="-19" y="-16" width="261" height="76" fill="#FF5108" fill-opacity="0.05"/>
<path d="M24.5137 18.3979C25.4193 20.0868 26.2631 21.7979 27.0658 23.5312L27.5393 23.3535C31.6659 22.0949 35.9864 21.7547 40.2385 22.3535C39.9302 17.6967 38.0991 13.3098 35.0724 9.97568L32.0673 12.7757C29.7393 14.9309 27.2074 16.8155 24.5137 18.3979Z" fill="#FF5108"/>
<path d="M15.8066 5.22013C18.4067 8.4705 20.7801 11.9244 22.9075 15.5535C25.4607 14.0699 27.8556 12.2888 30.0496 10.2423L32.7253 7.77568C27.8419 3.9104 21.4901 2.94261 15.8066 5.1979V5.22013Z" fill="#FF5108"/>
<path d="M8.19247 20.5756C12.3132 20.0899 16.3397 18.9205 20.1303 17.1089C18.1445 13.7277 15.9364 10.5046 13.5233 7.46454L12.8235 6.68677C7.92529 9.73467 4.61128 15.0607 3.84961 21.1089L8.19247 20.5756Z" fill="#FF5108"/>
<path d="M28.4238 26.5535C30.0684 30.4611 31.4444 34.4943 32.5403 38.6201L32.8079 39.6868C37.006 36.3732 39.6885 31.2767 40.1763 25.6868C36.2457 25.0877 32.2425 25.3829 28.4238 26.5535Z" fill="#FF5108"/>
<path d="M8.99473 37.6868C11.4802 33.3003 14.9578 29.668 19.1007 27.1312C20.7279 26.1801 22.4126 25.3487 24.1433 24.6424C23.3817 23.0201 22.5997 21.4424 21.7558 19.9091C17.5701 21.9705 13.1116 23.3127 8.54193 23.8868L3.70508 24.4645V25.0645C3.99744 29.824 5.87656 34.3079 8.99473 37.6868Z" fill="#FF5108"/>
<path d="M29.5554 39.5312C28.4694 35.4667 27.0932 31.4992 25.4389 27.6645C23.7535 28.3505 22.1105 29.1523 20.5197 30.0645C16.7045 32.4133 13.5255 35.7996 11.2988 39.8868C16.7822 44.1076 23.9711 44.7309 30.0081 41.5089L29.5554 39.5312Z" fill="#FF5108"/>
<path d="M60.9071 35.68C59.9652 35.68 59.0234 35.5991 58.0815 35.4373C57.1396 35.2987 56.2514 35.0791 55.4165 34.7787C54.5817 34.4551 53.8325 34.0623 53.1689 33.6C52.7836 33.3227 52.516 32.9876 52.3662 32.5947C52.2164 32.2017 52.1628 31.8204 52.2057 31.4507C52.2699 31.0577 52.4091 30.7227 52.6231 30.4453C52.8586 30.1449 53.1476 29.96 53.49 29.8907C53.8325 29.8213 54.2072 29.9253 54.6138 30.2027C55.5557 30.8036 56.5511 31.2427 57.5999 31.52C58.6487 31.7973 59.7512 31.936 60.9071 31.936C62.5981 31.936 63.8289 31.6356 64.5995 31.0347C65.3702 30.4107 65.7554 29.6133 65.7554 28.6427C65.7554 27.8337 65.4772 27.1983 64.9206 26.736C64.3855 26.2737 63.4544 25.8924 62.1272 25.592L58.5953 24.7947C56.5617 24.3324 55.042 23.5583 54.0359 22.472C53.0513 21.3627 52.5589 19.9067 52.5589 18.104C52.5589 16.9716 52.7729 15.9431 53.2011 15.0187C53.6292 14.0943 54.2285 13.2969 54.9991 12.6267C55.7911 11.9564 56.7222 11.448 57.7926 11.1013C58.8842 10.7316 60.083 10.5467 61.3887 10.5467C62.673 10.5467 63.8932 10.72 65.0491 11.0667C66.205 11.4133 67.2432 11.9218 68.1636 12.592C68.506 12.8462 68.7308 13.1582 68.8379 13.528C68.9663 13.8977 68.9984 14.2676 68.9342 14.6373C68.87 14.984 68.7202 15.2844 68.4847 15.5387C68.2492 15.7929 67.9496 15.9431 67.5856 15.9893C67.2432 16.0356 66.8471 15.92 66.3976 15.6427C65.6057 15.1573 64.8029 14.8107 63.9895 14.6027C63.176 14.3947 62.2985 14.2907 61.3566 14.2907C60.372 14.2907 59.5264 14.4409 58.82 14.7413C58.1136 15.0417 57.5678 15.4693 57.1825 16.024C56.8186 16.5556 56.6367 17.1911 56.6367 17.9307C56.6367 18.7627 56.8935 19.4329 57.4073 19.9413C57.921 20.4267 58.7987 20.808 60.0401 21.0853L63.54 21.8827C65.6591 22.368 67.2324 23.1307 68.2599 24.1707C69.3087 25.2107 69.8332 26.5973 69.8332 28.3307C69.8332 29.44 69.6192 30.4453 69.1911 31.3467C68.7844 32.248 68.1849 33.0223 67.393 33.6693C66.6224 34.3164 65.6912 34.8133 64.5995 35.16C63.5079 35.5067 62.277 35.68 60.9071 35.68ZM74.966 41.8507C74.3238 41.8507 73.8316 41.6657 73.489 41.296C73.1466 40.9263 72.9753 40.3831 72.9753 39.6667V20.288C72.9753 19.5716 73.1466 19.0284 73.489 18.6587C73.8316 18.2889 74.3132 18.104 74.9339 18.104C75.5761 18.104 76.0684 18.2889 76.4109 18.6587C76.7535 19.0284 76.9246 19.5716 76.9246 20.288V22.992L76.5714 21.952C76.8925 20.7733 77.5454 19.8257 78.53 19.1093C79.5361 18.3929 80.7028 18.0347 82.0299 18.0347C83.3999 18.0347 84.5985 18.3929 85.626 19.1093C86.675 19.8257 87.4883 20.8427 88.0662 22.16C88.6442 23.4543 88.9332 25.0143 88.9332 26.84C88.9332 28.6427 88.6442 30.2143 88.0662 31.5547C87.4883 32.872 86.6856 33.8889 85.6581 34.6053C84.6306 35.3217 83.4213 35.68 82.0299 35.68C80.7242 35.68 79.579 35.3333 78.5943 34.64C77.6096 33.9236 76.9461 32.9991 76.6035 31.8667H76.9888V39.6667C76.9888 40.3831 76.8069 40.9263 76.443 41.296C76.1005 41.6657 75.6082 41.8507 74.966 41.8507ZM80.9061 32.3867C81.6981 32.3867 82.3938 32.1787 82.9931 31.7627C83.5925 31.3467 84.0527 30.7343 84.3738 29.9253C84.7163 29.0933 84.8875 28.0649 84.8875 26.84C84.8875 24.9911 84.5237 23.616 83.7958 22.7147C83.0681 21.7903 82.1048 21.328 80.9061 21.328C80.1141 21.328 79.4185 21.536 78.819 21.952C78.2197 22.3449 77.7488 22.9573 77.4062 23.7893C77.0852 24.5983 76.9246 25.6151 76.9246 26.84C76.9246 28.6657 77.2886 30.0524 78.0163 31C78.7442 31.9244 79.7074 32.3867 80.9061 32.3867ZM99.3881 35.68C97.7613 35.68 96.3485 35.3217 95.1497 34.6053C93.951 33.8889 93.0198 32.872 92.3563 31.5547C91.6928 30.2143 91.3609 28.6427 91.3609 26.84C91.3609 25.4764 91.5429 24.2631 91.9068 23.2C92.2921 22.1137 92.8379 21.1893 93.5443 20.4267C94.2507 19.6409 95.0963 19.0516 96.0809 18.6587C97.0655 18.2427 98.1679 18.0347 99.3881 18.0347C101.015 18.0347 102.428 18.3929 103.626 19.1093C104.825 19.8257 105.756 20.8427 106.42 22.16C107.083 23.4773 107.415 25.0373 107.415 26.84C107.415 28.2036 107.223 29.4284 106.837 30.5147C106.473 31.6009 105.938 32.5369 105.232 33.3227C104.525 34.0853 103.68 34.6747 102.695 35.0907C101.711 35.4836 100.608 35.68 99.3881 35.68ZM99.3881 32.3867C100.18 32.3867 100.876 32.1787 101.475 31.7627C102.074 31.3467 102.535 30.7343 102.856 29.9253C103.198 29.0933 103.369 28.0649 103.369 26.84C103.369 24.9911 103.006 23.616 102.278 22.7147C101.55 21.7903 100.587 21.328 99.3881 21.328C98.5961 21.328 97.9003 21.536 97.301 21.952C96.7017 22.3449 96.2307 22.9573 95.8882 23.7893C95.5671 24.5983 95.4066 25.6151 95.4066 26.84C95.4066 28.6657 95.7705 30.0524 96.4983 31C97.226 31.9244 98.1893 32.3867 99.3881 32.3867ZM112.783 35.6107C112.119 35.6107 111.605 35.4257 111.242 35.056C110.899 34.6631 110.728 34.1084 110.728 33.392V20.288C110.728 19.5716 110.899 19.0284 111.242 18.6587C111.584 18.2889 112.066 18.104 112.687 18.104C113.307 18.104 113.789 18.2889 114.131 18.6587C114.474 19.0284 114.645 19.5716 114.645 20.288V22.472H114.324C114.624 21.0853 115.212 20.0337 116.09 19.3173C116.968 18.6009 118.134 18.1733 119.59 18.0347C120.039 17.9884 120.393 18.1156 120.649 18.416C120.928 18.6933 121.088 19.1324 121.131 19.7333C121.174 20.3111 121.045 20.7849 120.746 21.1547C120.467 21.5013 120.039 21.7093 119.461 21.7787L118.755 21.848C117.449 21.9867 116.465 22.4257 115.801 23.1653C115.137 23.8817 114.806 24.8987 114.806 26.216V33.392C114.806 34.1084 114.634 34.6631 114.292 35.056C113.949 35.4257 113.446 35.6107 112.783 35.6107ZM131.404 35.68C130.012 35.68 128.845 35.4257 127.904 34.9173C126.983 34.4089 126.298 33.6693 125.849 32.6987C125.399 31.7049 125.175 30.48 125.175 29.024V21.64H123.505C122.991 21.64 122.595 21.5013 122.316 21.224C122.038 20.9236 121.899 20.5191 121.899 20.0107C121.899 19.4791 122.038 19.0747 122.316 18.7973C122.595 18.52 122.991 18.3813 123.505 18.3813H125.175V15.2267C125.175 14.5103 125.345 13.9671 125.688 13.5973C126.051 13.2276 126.555 13.0427 127.197 13.0427C127.84 13.0427 128.331 13.2276 128.674 13.5973C129.016 13.9671 129.188 14.5103 129.188 15.2267V18.3813H132.592C133.105 18.3813 133.501 18.52 133.78 18.7973C134.058 19.0747 134.197 19.4791 134.197 20.0107C134.197 20.5191 134.058 20.9236 133.78 21.224C133.501 21.5013 133.105 21.64 132.592 21.64H129.188V28.7813C129.188 29.8907 129.413 30.7227 129.862 31.2773C130.312 31.832 131.039 32.1093 132.046 32.1093C132.409 32.1093 132.73 32.0747 133.009 32.0053C133.287 31.936 133.533 31.8897 133.748 31.8667C134.004 31.8436 134.218 31.936 134.39 32.144C134.56 32.3289 134.647 32.7217 134.647 33.3227C134.647 33.7849 134.571 34.2009 134.422 34.5707C134.293 34.9173 134.046 35.16 133.683 35.2987C133.404 35.3911 133.041 35.472 132.592 35.5413C132.142 35.6337 131.746 35.68 131.404 35.68ZM139.102 35.3333C138.396 35.3333 137.85 35.1369 137.465 34.744C137.1 34.328 136.919 33.7387 136.919 32.976V13.2507C136.919 12.488 137.1 11.9102 137.465 11.5173C137.85 11.1013 138.396 10.8933 139.102 10.8933H150.565C151.1 10.8933 151.507 11.0436 151.785 11.344C152.085 11.6444 152.235 12.072 152.235 12.6267C152.235 13.2044 152.085 13.6551 151.785 13.9787C151.507 14.2791 151.1 14.4293 150.565 14.4293H140.868V21.1547H149.859C150.416 21.1547 150.833 21.3049 151.111 21.6053C151.389 21.9057 151.528 22.3449 151.528 22.9227C151.528 23.5004 151.389 23.9396 151.111 24.24C150.833 24.5404 150.416 24.6907 149.859 24.6907H140.868V31.7973H150.565C151.1 31.7973 151.507 31.9476 151.785 32.248C152.085 32.5484 152.235 32.9876 152.235 33.5653C152.235 34.1431 152.085 34.5823 151.785 34.8827C151.507 35.1831 151.1 35.3333 150.565 35.3333H139.102ZM160.705 35.68C159.57 35.68 158.554 35.4489 157.655 34.9867C156.777 34.5013 156.081 33.8543 155.568 33.0453C155.075 32.2364 154.829 31.3236 154.829 30.3067C154.829 29.0587 155.129 28.0764 155.728 27.36C156.327 26.6204 157.302 26.0889 158.65 25.7653C159.999 25.4417 161.808 25.28 164.076 25.28H165.682V27.776H164.109C162.781 27.776 161.721 27.8453 160.93 27.984C160.138 28.1227 159.57 28.3653 159.228 28.712C158.907 29.0356 158.746 29.4977 158.746 30.0987C158.746 30.8613 158.992 31.4853 159.485 31.9707C159.978 32.456 160.662 32.6987 161.54 32.6987C162.246 32.6987 162.867 32.5253 163.402 32.1787C163.959 31.8089 164.398 31.312 164.719 30.688C165.04 30.064 165.2 29.3476 165.2 28.5387V24.552C165.2 23.3964 164.964 22.5644 164.494 22.056C164.023 21.5476 163.23 21.2933 162.118 21.2933C161.497 21.2933 160.822 21.3743 160.095 21.536C159.389 21.6977 158.639 21.9751 157.847 22.368C157.441 22.576 157.077 22.6337 156.756 22.5413C156.456 22.4489 156.221 22.264 156.049 21.9867C155.878 21.6863 155.792 21.3627 155.792 21.016C155.792 20.6693 155.878 20.3343 156.049 20.0107C156.221 19.664 156.51 19.4097 156.916 19.248C157.9 18.8089 158.843 18.4969 159.742 18.312C160.662 18.1271 161.497 18.0347 162.246 18.0347C163.787 18.0347 165.051 18.2889 166.035 18.7973C167.042 19.3057 167.79 20.08 168.283 21.12C168.775 22.1369 169.021 23.4543 169.021 25.072V33.392C169.021 34.1084 168.861 34.6631 168.539 35.056C168.218 35.4257 167.758 35.6107 167.159 35.6107C166.56 35.6107 166.088 35.4257 165.746 35.056C165.425 34.6631 165.264 34.1084 165.264 33.392V31.728H165.521C165.372 32.5369 165.072 33.2417 164.622 33.8427C164.194 34.4204 163.648 34.8711 162.985 35.1947C162.322 35.5183 161.561 35.68 160.705 35.68ZM178.843 35.68C177.921 35.68 176.948 35.576 175.921 35.368C174.893 35.16 173.972 34.8017 173.159 34.2933C172.816 34.0623 172.57 33.7964 172.421 33.496C172.292 33.1724 172.238 32.8604 172.26 32.56C172.302 32.2364 172.41 31.9591 172.581 31.728C172.774 31.4969 173.009 31.3467 173.288 31.2773C173.587 31.208 173.908 31.2657 174.251 31.4507C175.107 31.8897 175.91 32.2017 176.659 32.3867C177.408 32.5484 178.146 32.6293 178.875 32.6293C179.902 32.6293 180.662 32.4444 181.154 32.0747C181.668 31.6817 181.925 31.1733 181.925 30.5493C181.925 30.0177 181.753 29.6133 181.411 29.336C181.09 29.0356 180.597 28.816 179.934 28.6773L176.723 28.0187C175.396 27.7413 174.38 27.2213 173.673 26.4587C172.988 25.6729 172.646 24.6676 172.646 23.4427C172.646 22.3333 172.924 21.3743 173.48 20.5653C174.058 19.7564 174.85 19.1324 175.857 18.6933C176.862 18.2543 178.018 18.0347 179.324 18.0347C180.265 18.0347 181.143 18.1503 181.957 18.3813C182.792 18.5893 183.595 18.9244 184.365 19.3867C184.686 19.5716 184.9 19.8143 185.007 20.1147C185.136 20.4151 185.168 20.7271 185.104 21.0507C185.04 21.3511 184.911 21.6284 184.718 21.8827C184.526 22.1137 184.279 22.264 183.98 22.3333C183.701 22.3796 183.38 22.3103 183.017 22.1253C182.352 21.7556 181.71 21.4897 181.09 21.328C180.49 21.1663 179.912 21.0853 179.356 21.0853C178.307 21.0853 177.526 21.2817 177.012 21.6747C176.52 22.0676 176.274 22.5876 176.274 23.2347C176.274 23.72 176.423 24.1244 176.723 24.448C177.022 24.7716 177.483 24.9911 178.104 25.1067L181.315 25.7653C182.705 26.0427 183.755 26.5511 184.462 27.2907C185.189 28.0303 185.553 29.024 185.553 30.272C185.553 31.9591 184.943 33.288 183.723 34.2587C182.503 35.2063 180.875 35.68 178.843 35.68ZM196.511 35.68C194.734 35.68 193.204 35.3217 191.919 34.6053C190.635 33.8889 189.64 32.872 188.933 31.5547C188.248 30.2373 187.906 28.6773 187.906 26.8747C187.906 25.1183 188.238 23.5813 188.901 22.264C189.587 20.9467 190.518 19.9183 191.695 19.1787C192.894 18.416 194.252 18.0347 195.772 18.0347C196.885 18.0347 197.88 18.2311 198.758 18.624C199.657 19.0169 200.417 19.5831 201.038 20.3227C201.68 21.0623 202.162 21.9636 202.483 23.0267C202.825 24.0667 202.997 25.2453 202.997 26.5627C202.997 26.9787 202.857 27.3023 202.579 27.5333C202.322 27.7413 201.948 27.8453 201.456 27.8453H191.149V25.3493H200.171L199.657 25.8693C199.657 24.8063 199.508 23.9164 199.208 23.2C198.93 22.4836 198.513 21.9404 197.956 21.5707C197.421 21.1777 196.747 20.9813 195.933 20.9813C195.034 20.9813 194.263 21.2124 193.621 21.6747C193 22.1137 192.518 22.7493 192.176 23.5813C191.855 24.3903 191.695 25.3609 191.695 26.4933V26.736C191.695 28.6311 192.101 30.0524 192.915 31C193.75 31.9244 194.97 32.3867 196.575 32.3867C197.132 32.3867 197.752 32.3173 198.437 32.1787C199.144 32.0169 199.807 31.7511 200.428 31.3813C200.878 31.104 201.274 30.9884 201.616 31.0347C201.958 31.0577 202.226 31.1849 202.419 31.416C202.632 31.6471 202.761 31.936 202.804 32.2827C202.847 32.6063 202.783 32.9413 202.611 33.288C202.462 33.6347 202.194 33.9351 201.809 34.1893C201.059 34.6977 200.192 35.0791 199.208 35.3333C198.245 35.5644 197.346 35.68 196.511 35.68Z" fill="black"/>
</g>
<defs>
<clipPath id="clip0_136_349">
<rect width="205" height="48" fill="white"/>
</clipPath>
</defs>
</svg>
